<?xml version="1.0" encoding="UTF-8"?>
<svg id="Layer_1" xmlns="http://www.w3.org/2000/svg" version="1.1" viewBox="0 0 228.6 34.6">
  <!-- Generator: Adobe Illustrator 29.3.1, SVG Export Plug-In . SVG Version: 2.1.0 Build 151)  -->
  <defs>
    <style>
      .st0 {
        fill: #f7f7f7;
      }
    </style>
  </defs>
  <g>
    <path class="st0" d="M38.1,31.6c-.4.2-.9.3-1.1.4-1.6.7-3.3,1-5,1s-4.5-.5-6.5-1.6-3.7-2.6-4.9-4.5-1.9-4-1.9-6.4.3-3.4,1.1-4.9,1.6-2.8,2.9-3.9c1.2-1.1,2.6-2,4.3-2.6s3.3-1,5-1,3.4.3,5,.9c1.6.7,3.1,1.4,4.3,2.6,1.3,1.2,2.3,2.5,2.9,3.9.8,1.5,1.1,3.2,1.1,4.9v12.1h-7.2v-1.1s0,.2,0,.2ZM26.8,17.7c-.5.9-.9,1.9-.9,2.9,0,1.6.7,2.9,1.9,4.1,1.2,1.2,2.6,1.7,4.3,1.7s3.1-.5,4.3-1.7c1.2-1.2,1.9-2.5,1.9-4.1s-.3-2.1-.9-2.9-1.3-1.6-2.3-2.2c-.9-.5-2-.8-2.9-.8s-2.1.2-2.9.8c-1,.5-1.6,1.2-2.3,2.2Z"/>
    <path class="st0" d="M120.7,18.3v14.6h-7.3v-14.6c0-2.2-1.1-3.3-2.7-3.3h-.4c-1.9,0-2.7,1.3-2.7,3.8v14.1h-7.3v-14.1c0-6.5,3.4-10,10-10.5h.4c2.6,0,4.8.8,6.4,1.9,1.6-1.1,3.7-1.7,6.4-1.9h.4c6.6.3,10,3.8,10,10.5v14.1h-7.3v-14.1c0-2.5-.9-3.8-2.7-3.8h-.4c-1.7,0-2.6,1.2-2.7,3.3h-.1Z"/>
    <path class="st0" d="M59.5,26.4h9.9v6.6h-22.1l10.4-18h-8.5v-6.1h20.4l-9.9,17.6h-.1Z"/>
    <g>
      <path class="st0" d="M17.1,26.2v6.9c-8.1,0-16.1-6.5-16.1-14.6V.8h6.9v17.6c0,4.3,4.9,7.7,9.3,7.7h0Z"/>
      <polygon class="st0" points="14.4 15.1 7.9 15.1 7.9 9 14.4 9 14.4 15.1"/>
    </g>
    <path class="st0" d="M96.7,15.6c-.7-1.5-1.6-2.8-2.9-3.9-1.2-1.1-2.6-2-4.3-2.6s-3.3-.9-5-.9-3.4.3-5,1c-1.6.5-3.1,1.4-4.3,2.6-1.2,1.1-2.2,2.4-2.9,3.9-.8,1.5-1.1,3.2-1.1,4.9s.7,4.5,1.9,6.4c1.2,1.9,2.8,3.4,4.9,4.5s4.3,1.6,6.5,1.6,3.5-.3,5-1c.2,0,.5-.2,1.1-.4v1.1h7.2v-12.2c0-1.7-.3-3.4-1.1-4.9h0ZM89.2,24.1c-2,2.7-5.7,3.3-8.4,1.3s-3.3-5.7-1.3-8.4,5.7-3.3,8.4-1.3c.2.2.5.4.8.7-.3.2-.7.4-.9.8-.9,1.2-.5,2.8.5,3.6.7.4,1.3.5,2,.4,0,1-.4,2.1-1.1,2.9Z"/>
    <path class="st0" d="M161.3,15.6c-.7-1.5-1.6-2.8-2.9-3.9-1.2-1.1-2.6-2-4.3-2.6s-3.3-.9-5-.9-3.4.3-5,1c-1.6.5-3.1,1.4-4.3,2.6-1.2,1.1-2.2,2.4-2.9,3.9-.8,1.5-1.1,3.2-1.1,4.9s.7,4.5,1.9,6.4c1.2,1.9,2.8,3.4,4.9,4.5s4.3,1.6,6.5,1.6,3.5-.3,5-1c.2,0,.5-.2,1.1-.4v1.1h7.2v-12.2c0-1.7-.3-3.4-1.1-4.9h0ZM153.9,24.1c-2,2.7-5.7,3.3-8.4,1.3s-3.3-5.7-1.3-8.4,5.7-3.3,8.4-1.3c.2.2.5.4.8.7-.3.2-.7.4-.9.8-.9,1.2-.5,2.8.5,3.6.7.4,1.3.5,2,.4,0,1-.4,2.1-1.1,2.9Z"/>
  </g>
  <g>
    <g>
      <path class="st0" d="M180.9,13.9c-.7.9-1.8,1.4-2.9,1.4-1.8,0-2.9-1.5-2.6-3.2.3-1.8,2-3.2,3.8-3.2s2,.6,2.4,1.4c0,0-.3.2-.7.4l-.8.5c-.2-.5-.7-.8-1.3-.8-.9,0-1.8.8-2,1.7-.2.9.4,1.7,1.4,1.7s1.2-.3,1.6-.8l1.1.9Z"/>
      <path class="st0" d="M182.3,15.3l1.1-6.3h2.6c1.5,0,2,1.1,1.8,2.1-.2.9-.8,1.8-1.9,2l1.2,2.2h-1.8l-1-2.1h-.1l-.4,2.1h-1.5ZM184.7,10.3l-.3,1.5h1c.5,0,.7-.4.8-.8,0-.4,0-.8-.5-.8h-1Z"/>
      <path class="st0" d="M188.8,15.3l1.1-6.3h4.1l-.2,1.3h-2.6l-.2,1.2h2.2l-.2,1.3h-2.2l-.2,1.1h2.6l-.2,1.3h-4.2Z"/>
      <path class="st0" d="M198.4,13.8h-2l-.8,1.4h-1.6l3.4-6.3h1.7l1.2,6.3h-1.6l-.3-1.4ZM197.1,12.5h1.2l-.2-2.1-.9,2.1Z"/>
      <path class="st0" d="M201.5,10.3l.2-1.3h4.8l-.2,1.3h-1.6l-.9,5h-1.5l.9-5h-1.6Z"/>
      <path class="st0" d="M207,15.3l1.1-6.3h4.1l-.2,1.3h-2.6l-.2,1.2h2.2l-.2,1.3h-2.2l-.2,1.1h2.6l-.2,1.3h-4.2Z"/>
    </g>
    <g>
      <path class="st0" d="M180.9,22.8c-.7.9-1.8,1.4-2.9,1.4-1.8,0-2.9-1.5-2.6-3.2.3-1.8,2-3.2,3.8-3.2s2,.6,2.4,1.4c0,0-.3.2-.7.4l-.8.5c-.2-.5-.7-.8-1.3-.8-.9,0-1.8.8-2,1.7-.2.9.4,1.7,1.4,1.7s1.2-.3,1.6-.8l1.1.9Z"/>
      <path class="st0" d="M185.9,22.7h-2l-.8,1.4h-1.6l3.4-6.3h1.7l1.2,6.3h-1.6l-.3-1.4ZM184.5,21.4h1.2l-.2-2.1-.9,2.1Z"/>
      <path class="st0" d="M189,24.2l1.1-6.3h2.6c1.5,0,2,1.1,1.8,2.1-.2,1.1-1,2.1-2.5,2.1h-1.1l-.4,2.1h-1.5ZM191.4,19.2l-.3,1.5h1c.5,0,.7-.4.8-.8,0-.4,0-.8-.5-.8h-1Z"/>
      <path class="st0" d="M195.8,19.2l.2-1.3h4.8l-.2,1.3h-1.6l-.9,5h-1.5l.9-5h-1.6Z"/>
      <path class="st0" d="M201.6,21.9l.7-4h1.5l-.7,4c-.1.6.3.9.8.9s1-.4,1.1-.9l.7-4h1.5l-.7,4c-.3,1.5-1.6,2.4-2.9,2.4s-2.3-.9-2.1-2.4Z"/>
      <path class="st0" d="M208.2,24.2l1.1-6.3h2.6c1.5,0,2,1.1,1.8,2.1-.2.9-.8,1.8-1.9,2l1.2,2.2h-1.8l-1-2.1h-.1l-.4,2.1h-1.5ZM210.6,19.2l-.3,1.5h1c.5,0,.7-.4.8-.8,0-.4,0-.8-.5-.8h-1Z"/>
      <path class="st0" d="M214.7,24.2l1.1-6.3h4.1l-.2,1.3h-2.6l-.2,1.2h2.2l-.2,1.3h-2.2l-.2,1.1h2.6l-.2,1.3h-4.2Z"/>
    </g>
    <g>
      <path class="st0" d="M180.9,31.7c-.7.9-1.8,1.4-2.9,1.4-1.8,0-2.9-1.5-2.6-3.2.3-1.8,2-3.2,3.8-3.2s2,.6,2.4,1.4c0,0-.3.2-.7.4l-.8.5c-.2-.5-.7-.8-1.3-.8-.9,0-1.8.8-2,1.7-.2.9.4,1.7,1.4,1.7s1.2-.3,1.6-.8l1.1.9Z"/>
      <path class="st0" d="M185.9,31.6h-2l-.8,1.4h-1.6l3.4-6.3h1.7l1.2,6.3h-1.6l-.3-1.4ZM184.5,30.3h1.2l-.2-2.1-.9,2.1Z"/>
      <path class="st0" d="M189,33.1l1.1-6.3h2.6c1.5,0,2,1.1,1.8,2.1-.2,1.1-1,2.1-2.5,2.1h-1.1l-.4,2.1h-1.5ZM191.4,28.1l-.3,1.5h1c.5,0,.7-.4.8-.8,0-.4,0-.8-.5-.8h-1Z"/>
      <path class="st0" d="M195.8,28.1l.2-1.3h4.8l-.2,1.3h-1.6l-.9,5h-1.5l.9-5h-1.6Z"/>
      <path class="st0" d="M202.4,26.8h1.5l-1.1,6.3h-1.5l1.1-6.3Z"/>
      <path class="st0" d="M205.4,26.8h1.6l.3,3.8,1.7-3.8h1.6l-3,6.3h-1.3l-.8-6.3Z"/>
      <path class="st0" d="M214.3,31.6h-2l-.8,1.4h-1.6l3.4-6.3h1.7l1.2,6.3h-1.6l-.3-1.4ZM212.9,30.3h1.2l-.2-2.1-.9,2.1Z"/>
      <path class="st0" d="M217.4,28.1l.2-1.3h4.8l-.2,1.3h-1.6l-.9,5h-1.5l.9-5h-1.6Z"/>
      <path class="st0" d="M222.9,33.1l1.1-6.3h4.1l-.2,1.3h-2.6l-.2,1.2h2.2l-.2,1.3h-2.2l-.2,1.1h2.6l-.2,1.3h-4.2Z"/>
    </g>
  </g>
  <rect class="st0" x="168.3" y="9" width="1.1" height="24"/>
</svg>