<?xml version="1.0" encoding="UTF-8"?>
<svg id="Layer_1" data-name="Layer 1" xmlns="http://www.w3.org/2000/svg" viewBox="0 0 150 73.14">
  <defs>
    <style>
      .cls-1 {
        fill: #242a36;
      }

      .cls-2 {
        fill: #f21260;
      }
    </style>
  </defs>
  <g>
    <path class="cls-1" d="M39.7,59.71c-.38.17-.67.28-.85.34-1.27.49-2.6.74-3.99.74-1.84,0-3.57-.43-5.2-1.28-1.63-.86-2.93-2.04-3.89-3.53-.97-1.51-1.46-3.2-1.46-5.06,0-1.4.28-2.71.85-3.92.56-1.2,1.34-2.24,2.32-3.13.97-.89,2.1-1.57,3.38-2.03,1.28-.49,2.62-.74,3.99-.74s2.7.24,3.99.72c1.3.48,2.42,1.16,3.38,2.05,1.01.91,1.79,1.96,2.34,3.13.56,1.21.85,2.52.85,3.92l-.02,9.64h-5.7v-.86ZM30.72,48.61c-.44.71-.67,1.48-.67,2.32,0,1.27.48,2.37,1.44,3.29.95.91,2.07,1.37,3.36,1.37s2.44-.46,3.38-1.37c.96-.92,1.44-2.02,1.44-3.29,0-.84-.22-1.61-.67-2.32-.44-.71-1.04-1.27-1.78-1.69-.73-.41-1.52-.61-2.38-.61s-1.61.2-2.36.61c-.74.42-1.34.98-1.78,1.69Z"/>
    <path class="cls-1" d="M104.73,48.94v11.6h-5.78v-11.6c-.1-1.69-.82-2.56-2.18-2.61h-.32c-1.46.05-2.2,1.06-2.2,3.04v11.17h-5.76v-11.17c0-5.22,2.65-7.97,7.95-8.26h.32c2.11.12,3.8.62,5.07,1.51,1.26-.89,2.94-1.39,5.06-1.51h.32c5.3.29,7.95,3.04,7.95,8.26v11.17h-5.76v-11.17c0-1.98-.73-2.99-2.2-3.04h-.32c-1.36.05-2.08.92-2.18,2.61Z"/>
    <path class="cls-1" d="M86.27,47.1c-.55-1.17-1.33-2.22-2.34-3.13-.96-.89-2.09-1.57-3.38-2.05-1.29-.48-2.63-.72-3.99-.72s-2.71.25-4,.74c-1.29.47-2.41,1.14-3.38,2.03-.98.89-1.76,1.93-2.32,3.13-.56,1.21-.85,2.52-.85,3.92,0,1.86.49,3.54,1.46,5.06.96,1.49,2.25,2.66,3.88,3.53,1.63.85,3.37,1.28,5.2,1.28,1.39,0,2.72-.25,3.99-.74.18-.06.46-.17.85-.34v.72h5.7l.02-9.5c0-1.41-.28-2.71-.85-3.92ZM76.56,55.85c-2.66,0-4.81-2.16-4.81-4.81s2.16-4.81,4.81-4.81c.58,0,1.14.1,1.66.29-.21.32-.33.71-.33,1.12,0,1.15.94,2.09,2.09,2.09.41,0,.79-.12,1.11-.32.18.51.28,1.06.28,1.63,0,2.66-2.16,4.81-4.81,4.81Z"/>
    <path class="cls-1" d="M136.83,47.1c-.55-1.17-1.33-2.22-2.34-3.13-.96-.89-2.09-1.57-3.38-2.05-1.29-.48-2.63-.72-3.99-.72s-2.71.25-4,.74c-1.29.47-2.41,1.14-3.38,2.03-.98.89-1.76,1.93-2.32,3.13-.56,1.21-.85,2.52-.85,3.92,0,1.86.49,3.54,1.46,5.06.96,1.49,2.25,2.66,3.88,3.53,1.63.85,3.37,1.28,5.2,1.28,1.39,0,2.72-.25,3.99-.74.18-.06.46-.17.85-.34v.72h5.7l.02-9.5c0-1.41-.28-2.71-.85-3.92ZM127.13,55.85c-2.66,0-4.81-2.16-4.81-4.81s2.16-4.81,4.81-4.81c.58,0,1.14.1,1.66.29-.21.32-.33.71-.33,1.12,0,1.15.94,2.09,2.09,2.09.41,0,.79-.12,1.11-.32.18.51.28,1.06.28,1.63,0,2.66-2.16,4.81-4.81,4.81Z"/>
    <path class="cls-1" d="M22.93,55.1v5.45c-6.4,0-12.76-5.2-12.76-11.6v-13.91h5.45v13.91c0,3.39,3.91,6.15,7.3,6.15Z"/>
    <path class="cls-1" d="M56.54,55.3h8.08v5.25h-17.82l8.24-14.26h-6.72l-.03-4.88h16.15l-7.9,13.88Z"/>
    <g>
      <path class="cls-2" d="M51.55,63.73c1.61,0,2.92,1.33,2.92,2.96,0,.73-.26,1.4-.69,1.92-.05.06-.11.12-.17.18-.53.54-1.25.87-2.05.87h-2.92v-5.95h2.91ZM49.67,68.61h1.88c1.03,0,1.88-.86,1.88-1.91s-.84-1.91-1.88-1.91h-1.88v3.82Z"/>
      <path class="cls-2" d="M56.14,69.66v-5.95h1.04v5.95h-1.04Z"/>
      <path class="cls-2" d="M59.89,66.69c0,1.05.84,1.91,1.88,1.91h1.88v-1.14h-1.88v-1.06h2.92v3.26h-2.92c-1.61,0-2.92-1.33-2.92-2.97s1.31-2.97,2.92-2.97h2.92v1.06h-2.92c-1.03,0-1.88.86-1.88,1.91Z"/>
      <path class="cls-2" d="M66.34,69.66v-5.95h1.04v5.95h-1.04Z"/>
      <path class="cls-2" d="M74.88,63.73v1.06h-2.39v4.88h-1.04v-4.88h-2.39v-1.06h5.83Z"/>
      <path class="cls-2" d="M80.53,69.66h-1.17l-.53-1.06-1.28-2.55-1.28,2.55-.53,1.06h-1.17l.53-1.06,2.44-4.88,2.44,4.88.53,1.06Z"/>
      <path class="cls-2" d="M86.45,68.61v1.06h-2.96c-.29,0-.57-.07-.82-.2-.37-.19-.67-.49-.84-.87-.13-.25-.19-.54-.19-.83v-4.05h1.04v4.15c.05.37.34.67.71.72h3.06Z"/>
      <path class="cls-2" d="M97.48,65.37v-.03c0-.3-.24-.54-.53-.54h-2.37c-.29,0-.53.25-.53.54v.03c0,.3.24.54.53.54h2.1c.54,0,1.03.24,1.36.61.03.03.04.05.07.08.26.32.42.74.42,1.19,0,1.04-.83,1.88-1.84,1.88h-1.83c-1.02,0-1.84-.84-1.84-1.88h1.04c0,.45.36.82.8.82h1.83c.44,0,.81-.36.81-.82s-.37-.82-.81-.82h-2.1c-.42,0-.81-.17-1.09-.45-.07-.08-.14-.16-.2-.25-.18-.25-.27-.57-.27-.91v-.03c0-.88.7-1.61,1.57-1.61h2.37c.87,0,1.58.72,1.58,1.61v.03h-1.04Z"/>
      <path class="cls-2" d="M105.74,63.73v1.06h-2.39v4.88h-1.04v-4.88h-2.39v-1.06h5.83Z"/>
      <path class="cls-2" d="M113.25,63.72v2.97c0,1.64-1.31,2.97-2.92,2.97s-2.92-1.33-2.92-2.97v-2.97h1.04v2.97c0,1.05.84,1.91,1.88,1.91s1.88-.86,1.88-1.91v-2.97h1.04Z"/>
      <path class="cls-2" d="M117.82,63.73c1.61,0,2.92,1.33,2.92,2.96,0,.73-.26,1.4-.69,1.92-.05.06-.11.12-.17.18-.53.54-1.25.87-2.05.87h-2.92v-5.95h2.91ZM115.95,68.61h1.88c1.03,0,1.88-.86,1.88-1.91s-.84-1.91-1.88-1.91h-1.88v3.82Z"/>
      <path class="cls-2" d="M122.41,69.66v-5.95h1.04v5.95h-1.04Z"/>
      <path class="cls-2" d="M130.75,66.69c0,1.64-1.31,2.97-2.92,2.97s-2.92-1.33-2.92-2.97,1.31-2.97,2.92-2.97,2.92,1.33,2.92,2.97ZM129.71,66.69c0-1.05-.84-1.91-1.88-1.91s-1.88.86-1.88,1.91.84,1.91,1.88,1.91,1.88-.86,1.88-1.91Z"/>
      <path class="cls-2" d="M136.68,65.37v-.03c0-.3-.24-.54-.53-.54h-2.37c-.29,0-.53.25-.53.54v.03c0,.3.24.54.53.54h2.1c.54,0,1.03.24,1.36.61.03.03.04.05.07.08.26.32.42.74.42,1.19,0,1.04-.83,1.88-1.84,1.88h-1.83c-1.02,0-1.84-.84-1.84-1.88h1.04c0,.45.36.82.8.82h1.83c.44,0,.81-.36.81-.82s-.37-.82-.81-.82h-2.1c-.42,0-.81-.17-1.09-.45-.07-.08-.14-.16-.2-.25-.18-.25-.27-.57-.27-.91v-.03c0-.88.7-1.61,1.57-1.61h2.37c.87,0,1.58.72,1.58,1.61v.03h-1.04Z"/>
    </g>
    <polygon class="cls-2" points="19.69 46.26 15.62 46.29 15.62 41.41 19.69 41.41 19.69 46.26"/>
  </g>
  <g>
    <path class="cls-2" d="M76.72,18.09c-.64.67-1.54,1.09-2.53,1.09-1.93,0-3.5-1.57-3.5-3.5,0-.53.12-1.04.33-1.49-.41-.06-.83-.1-1.26-.1-4.45,0-8.06,3.61-8.06,8.06s3.61,8.06,8.06,8.06,8.06-3.61,8.06-8.06c0-1.48-.4-2.87-1.1-4.06Z"/>
    <path class="cls-1" d="M91.44,18.62c0,6.7-3.67,12.54-9.11,15.63-2.61,1.48-5.63,2.33-8.85,2.33-4.99,0-8.47-.99-11.72-4.28l.08-.08c2.29,2.34,4.45,2.76,7.99,2.76,6.99,0,12.65-5.67,12.65-12.65,0-2.83-.93-5.44-2.51-7.56t0,0c-.39-.53-.82-1.01-1.29-1.47l7.43-7.43c3.3,3.25,5.34,7.77,5.34,12.77Z"/>
  </g>
</svg>