<?xml version="1.0" encoding="UTF-8"?>
<svg id="Layer_1" xmlns="http://www.w3.org/2000/svg" version="1.1" viewBox="0 0 228.6 34.6">
  <!-- Generator: Adobe Illustrator 29.3.1, SVG Export Plug-In . SVG Version: 2.1.0 Build 151)  -->
  <defs>
    <style>
      .st0 {
        fill: #f7f7f7;
      }
    </style>
  </defs>
  <g>
    <path class="st0" d="M186.4,23.3c-.5.8-1.5,1.3-2.6,1.3-1.8,0-3.1-1.4-3.1-3.2s1.3-3.2,3.1-3.2,2,.5,2.6,1.3l-1.1.7c-.3-.5-.9-.8-1.5-.8-1,0-1.8.9-1.8,1.9s.8,1.9,1.8,1.9,1.2-.3,1.5-.8l1.1.7Z"/>
    <path class="st0" d="M188.7,23.1l-.5,1.5h-1.4l2.3-6.2h1.4l2.3,6.2h-1.4l-.5-1.5h-2.1ZM190.5,22l-.7-2.1-.6,2.1h1.3Z"/>
    <path class="st0" d="M193.7,18.5h2.5c1.4,0,2,1,2,2s-.6,2-2,2h-1.2v2.1h-1.3v-6.2ZM195,19.6v1.7h1.2c.5,0,.8-.5.8-.9s-.2-.9-.7-.9h-1.2Z"/>
    <path class="st0" d="M198.9,18.5h4.6v1.2h-1.7v5h-1.3v-5h-1.7v-1.2Z"/>
    <path class="st0" d="M208.2,22.4v-4h1.3v4c0,1.4-1.1,2.3-2.4,2.3s-2.4-.9-2.4-2.3v-4h1.3v4c0,.6.5,1.1,1.1,1.1s1.1-.4,1.1-1.1Z"/>
    <path class="st0" d="M215.6,24.6h-1.6l-1.4-2.1h-.3v2.1h-1.3v-6.2h2.5c1.4,0,2,1,2,2s-.5,1.7-1.5,2l1.5,2.2ZM212.4,19.6v1.7h1.1c.5,0,.8-.5.8-.9s-.2-.9-.7-.9h-1.1Z"/>
    <path class="st0" d="M217,18.5h3.9v1.2h-2.6v1.4h2.3v1.1h-2.3v1.3h2.7v1.2h-4v-6.2Z"/>
  </g>
  <g>
    <path class="st0" d="M186.4,14.9c-.5.8-1.5,1.3-2.6,1.3-1.8,0-3.1-1.4-3.1-3.2s1.3-3.2,3.1-3.2,2,.5,2.6,1.3l-1.1.7c-.3-.5-.9-.8-1.5-.8-1,0-1.8.9-1.8,1.9s.8,1.9,1.8,1.9,1.2-.3,1.5-.8l1.1.7Z"/>
    <path class="st0" d="M192.1,16.2h-1.6l-1.4-2.1h-.3v2.1h-1.3v-6.2h2.5c1.4,0,2,1,2,2s-.5,1.7-1.5,2l1.5,2.2ZM188.9,11.2v1.7h1.1c.5,0,.8-.5.8-.9s-.2-.9-.7-.9h-1.1Z"/>
    <path class="st0" d="M193.5,10h3.9v1.2h-2.6v1.4h2.3v1.1h-2.3v1.3h2.7v1.2h-4v-6.2Z"/>
    <path class="st0" d="M200,14.7l-.5,1.5h-1.4l2.3-6.2h1.4l2.3,6.2h-1.4l-.5-1.5h-2.1ZM201.7,13.6l-.7-2.1-.6,2.1h1.3Z"/>
    <path class="st0" d="M204,10h4.6v1.2h-1.7v5h-1.3v-5h-1.7v-1.2Z"/>
    <path class="st0" d="M209.9,10h3.9v1.2h-2.6v1.4h2.3v1.1h-2.3v1.3h2.7v1.2h-4v-6.2Z"/>
  </g>
  <g>
    <path class="st0" d="M186.4,31.8c-.5.8-1.5,1.3-2.6,1.3-1.8,0-3.1-1.4-3.1-3.2s1.3-3.2,3.1-3.2,2,.5,2.6,1.3l-1.1.7c-.3-.5-.9-.8-1.5-.8-1,0-1.8.9-1.8,1.9s.8,1.9,1.8,1.9,1.2-.3,1.5-.8l1.1.7Z"/>
    <path class="st0" d="M188.7,31.6l-.5,1.5h-1.4l2.3-6.2h1.4l2.3,6.2h-1.4l-.5-1.5h-2.1ZM190.5,30.5l-.7-2.1-.6,2.1h1.3Z"/>
    <path class="st0" d="M193.7,26.9h2.5c1.4,0,2,1,2,2s-.6,2-2,2h-1.2v2.1h-1.3v-6.2ZM195,28.1v1.7h1.2c.5,0,.8-.5.8-.9s-.2-.9-.7-.9h-1.2Z"/>
    <path class="st0" d="M198.9,26.9h4.6v1.2h-1.7v5h-1.3v-5h-1.7v-1.2Z"/>
    <path class="st0" d="M206.1,26.9v6.2h-1.3v-6.2h1.3Z"/>
    <path class="st0" d="M208.5,26.9l1.1,4,1.1-4h1.4l-1.9,6.2h-1.2l-1.9-6.2h1.4Z"/>
    <path class="st0" d="M214,31.6l-.5,1.5h-1.4l2.3-6.2h1.4l2.3,6.2h-1.4l-.5-1.5h-2.1ZM215.7,30.5l-.7-2.1-.6,2.1h1.3Z"/>
    <path class="st0" d="M218,26.9h4.6v1.2h-1.7v5h-1.3v-5h-1.7v-1.2Z"/>
    <path class="st0" d="M223.9,26.9h3.9v1.2h-2.6v1.4h2.3v1.1h-2.3v1.3h2.7v1.2h-4v-6.2Z"/>
  </g>
  <g>
    <path class="st0" d="M38.2,32.1c-.4.2-.9.3-1.1.4-1.7.7-3.3,1-5.1,1s-4.5-.6-6.6-1.7c-2.1-1.1-3.7-2.6-5-4.5s-1.9-4.1-1.9-6.5.3-3.4,1.1-5c.8-1.5,1.7-2.9,3-4,1.2-1.1,2.6-2,4.3-2.6s3.3-1,5.1-1,3.4.3,5.1.9c1.7.7,3.1,1.4,4.3,2.6,1.3,1.2,2.3,2.5,3,4,.8,1.5,1.1,3.2,1.1,5v12.2h-7.3v-1.1.2ZM26.9,18.1c-.6.9-.9,1.9-.9,3,0,1.7.7,3,1.9,4.2,1.2,1.2,2.6,1.8,4.3,1.8s3.1-.6,4.3-1.8c1.2-1.2,1.9-2.5,1.9-4.2s-.3-2.1-.9-3c-.6-.9-1.3-1.7-2.3-2.2-.9-.6-2-.8-3-.8s-2.1.2-3,.8c-1,.6-1.7,1.2-2.3,2.2Z"/>
    <path class="st0" d="M121.6,18.7v14.7h-7.4v-14.7c0-2.2-1.1-3.3-2.8-3.3h-.4c-1.9,0-2.8,1.3-2.8,3.9v14.2h-7.4v-14.2c0-6.6,3.4-10.1,10.1-10.6h.4c2.6,0,4.8.8,6.5,1.9,1.7-1.1,3.7-1.8,6.5-1.9h.4c6.7.3,10.1,3.9,10.1,10.6v14.2h-7.4v-14.2c0-2.5-.9-3.9-2.8-3.9h-.4c-1.8,0-2.6,1.2-2.8,3.3h-.1Z"/>
    <path class="st0" d="M59.9,26.9h10v6.7h-22.3l10.5-18.2h-8.6v-6.2h20.6l-10,17.7h-.1Z"/>
    <g>
      <path class="st0" d="M17.1,26.6v6.9C8.9,33.6.8,27,.8,18.8V1h6.9v17.7c0,4.3,5,7.8,9.4,7.8h0Z"/>
      <polygon class="st0" points="14.3 15.4 7.7 15.4 7.7 9.3 14.3 9.3 14.3 15.4"/>
    </g>
    <path class="st0" d="M97.4,16c-.7-1.5-1.7-2.9-3-4-1.2-1.1-2.6-2-4.3-2.6s-3.3-.9-5.1-.9-3.4.3-5.1,1c-1.7.6-3.1,1.4-4.3,2.6-1.2,1.1-2.2,2.4-3,4-.8,1.5-1.1,3.2-1.1,5s.7,4.5,1.9,6.5c1.2,1.9,2.9,3.4,5,4.5,2.1,1.1,4.3,1.7,6.6,1.7s3.5-.3,5.1-1c.2,0,.6-.2,1.1-.4v1.1h7.3v-12.3c0-1.8-.3-3.4-1.1-5h0ZM89.8,24.5c-2,2.8-5.7,3.3-8.5,1.3-2.8-2-3.3-5.7-1.3-8.5,2-2.8,5.7-3.3,8.5-1.3.2.2.6.4.8.7-.3.2-.7.4-.9.8-.9,1.2-.6,2.9.6,3.6.7.4,1.3.6,2,.4,0,1-.4,2.1-1.1,3Z"/>
    <path class="st0" d="M162.6,16c-.7-1.5-1.7-2.9-3-4-1.2-1.1-2.6-2-4.3-2.6s-3.3-.9-5.1-.9-3.4.3-5.1,1c-1.7.6-3.1,1.4-4.3,2.6-1.2,1.1-2.2,2.4-3,4-.8,1.5-1.1,3.2-1.1,5s.7,4.5,1.9,6.5c1.2,1.9,2.9,3.4,5,4.5s4.3,1.7,6.6,1.7,3.5-.3,5.1-1c.2,0,.6-.2,1.1-.4v1.1h7.3v-12.3c0-1.8-.3-3.4-1.1-5h0ZM155.2,24.5c-2,2.8-5.7,3.3-8.5,1.3s-3.3-5.7-1.3-8.5,5.7-3.3,8.5-1.3c.2.2.6.4.8.7-.3.2-.7.4-.9.8-.9,1.2-.6,2.9.6,3.6.7.4,1.3.6,2,.4,0,1-.4,2.1-1.1,3Z"/>
  </g>
  <rect class="st0" x="171.2" y="9.1" width="1.4" height="24.3"/>
</svg>