<?xml version="1.0" encoding="UTF-8"?>
<svg id="Layer_1" data-name="Layer 1" xmlns="http://www.w3.org/2000/svg" viewBox="0 0 126.98 34.43">
  <defs>
    <style>
      .cls-1 {
        fill: #242a36;
      }

      .cls-2 {
        fill: #f21260;
      }
    </style>
  </defs>
  <g>
    <path class="cls-1" d="M55.83,20.79c-.25.11-.44.19-.55.22-.83.32-1.71.48-2.62.48-1.2,0-2.34-.28-3.41-.84-1.07-.57-1.92-1.34-2.55-2.31-.64-.99-.96-2.1-.96-3.32,0-.92.18-1.78.55-2.57.37-.79.88-1.47,1.52-2.05.64-.58,1.38-1.03,2.22-1.33.84-.32,1.72-.48,2.62-.48s1.77.16,2.62.47c.85.31,1.59.76,2.22,1.35.66.6,1.17,1.28,1.53,2.05.37.8.55,1.65.55,2.57v6.32h-3.75v-.56ZM49.94,13.5c-.29.46-.44.97-.44,1.52,0,.83.31,1.55.94,2.16.62.6,1.36.9,2.21.9s1.6-.3,2.22-.9c.63-.61.94-1.33.94-2.16,0-.55-.15-1.06-.44-1.52-.29-.46-.68-.83-1.17-1.11-.48-.27-1-.4-1.56-.4s-1.06.13-1.55.4c-.49.28-.88.65-1.17,1.11Z"/>
    <path class="cls-1" d="M98.5,13.71v7.61h-3.79v-7.61c-.06-1.11-.54-1.68-1.43-1.71h-.21c-.96.03-1.44.7-1.44,2v7.33h-3.78v-7.33c0-3.42,1.74-5.23,5.22-5.42h.21c1.39.08,2.5.41,3.33.99.83-.58,1.93-.91,3.32-.99h.21c3.48.19,5.22,2,5.22,5.42v7.33h-3.78v-7.33c0-1.3-.48-1.96-1.44-2h-.21c-.89.03-1.37.6-1.43,1.71Z"/>
    <path class="cls-1" d="M86.39,12.51c-.36-.77-.87-1.46-1.53-2.05-.63-.58-1.37-1.03-2.22-1.35-.85-.32-1.72-.47-2.62-.47s-1.78.16-2.62.48c-.84.31-1.58.75-2.22,1.33-.65.58-1.15,1.27-1.52,2.05-.37.79-.56,1.65-.56,2.57,0,1.22.32,2.33.96,3.32.63.98,1.48,1.75,2.55,2.31,1.07.56,2.21.84,3.41.84.91,0,1.79-.16,2.62-.48.12-.04.3-.11.56-.22v.47h3.74v-6.24c.01-.92-.17-1.78-.54-2.57ZM80.02,18.25c-1.74,0-3.16-1.41-3.16-3.16s1.41-3.16,3.16-3.16c.38,0,.75.07,1.09.19-.14.21-.21.46-.21.74,0,.76.61,1.37,1.37,1.37.27,0,.52-.08.73-.21.12.33.19.69.19,1.07,0,1.74-1.41,3.16-3.16,3.16Z"/>
    <path class="cls-1" d="M119.57,12.51c-.36-.77-.87-1.46-1.53-2.05-.63-.58-1.37-1.03-2.22-1.35-.85-.32-1.72-.47-2.62-.47s-1.78.16-2.62.48c-.84.31-1.58.75-2.22,1.33-.65.58-1.15,1.27-1.52,2.05-.37.79-.56,1.65-.56,2.57,0,1.22.32,2.33.96,3.32.63.98,1.48,1.75,2.55,2.31,1.07.56,2.21.84,3.41.84.91,0,1.79-.16,2.62-.48.12-.04.3-.11.56-.22v.47h3.74v-6.24c.01-.92-.17-1.78-.54-2.57ZM113.2,18.25c-1.74,0-3.16-1.41-3.16-3.16s1.41-3.16,3.16-3.16c.38,0,.75.07,1.09.19-.14.21-.21.46-.21.74,0,.76.61,1.37,1.37,1.37.27,0,.52-.08.73-.21.12.33.19.69.19,1.07,0,1.74-1.41,3.16-3.16,3.16Z"/>
    <path class="cls-1" d="M44.82,17.76v3.58c-4.2,0-8.37-3.41-8.37-7.61V4.59h3.58v9.13c0,2.22,2.57,4.03,4.79,4.03Z"/>
    <path class="cls-1" d="M66.88,17.89h5.3v3.45h-11.69l5.41-9.36h-4.41l-.02-3.2h10.6l-5.19,9.11Z"/>
    <g>
      <path class="cls-2" d="M63.6,23.42c1.06,0,1.91.87,1.91,1.95,0,.48-.17.92-.45,1.26-.03.04-.07.08-.11.12-.34.36-.82.57-1.35.57h-1.91v-3.9h1.91ZM62.37,26.62h1.23c.68,0,1.23-.56,1.23-1.25s-.55-1.25-1.23-1.25h-1.23v2.51Z"/>
      <path class="cls-2" d="M66.61,27.32v-3.9h.68v3.9h-.68Z"/>
      <path class="cls-2" d="M69.07,25.36c0,.69.55,1.25,1.23,1.25h1.23v-.75h-1.23v-.7h1.91v2.14h-1.91c-1.06,0-1.91-.88-1.91-1.95s.86-1.95,1.91-1.95h1.91v.7h-1.91c-.68,0-1.23.56-1.23,1.25Z"/>
      <path class="cls-2" d="M73.31,27.32v-3.9h.68v3.9h-.68Z"/>
      <path class="cls-2" d="M78.91,23.42v.7h-1.57v3.21h-.68v-3.21h-1.57v-.7h3.82Z"/>
      <path class="cls-2" d="M82.62,27.32h-.77l-.35-.7-.84-1.67-.84,1.67-.35.7h-.77l.35-.7,1.6-3.2,1.6,3.2.35.7Z"/>
      <path class="cls-2" d="M86.51,26.62v.7h-1.94c-.19,0-.37-.04-.54-.13-.24-.12-.44-.32-.55-.57-.08-.17-.13-.35-.13-.55v-2.66h.68v2.73c.03.25.22.44.47.47h2.01Z"/>
      <path class="cls-2" d="M93.74,24.49v-.02c0-.19-.16-.36-.35-.36h-1.55c-.19,0-.35.16-.35.36v.02c0,.19.16.36.35.36h1.38c.36,0,.67.16.89.4.02.02.03.03.04.05.17.21.27.48.27.78,0,.68-.54,1.23-1.21,1.23h-1.2c-.67,0-1.21-.55-1.21-1.23h.68c0,.3.24.54.53.54h1.2c.29,0,.53-.24.53-.54s-.24-.54-.53-.54h-1.38c-.28,0-.53-.11-.72-.3-.05-.05-.09-.11-.13-.17-.11-.17-.18-.37-.18-.6v-.02c0-.58.46-1.05,1.03-1.05h1.55c.57,0,1.03.47,1.03,1.05v.02h-.68Z"/>
      <path class="cls-2" d="M99.16,23.42v.7h-1.57v3.21h-.68v-3.21h-1.57v-.7h3.82Z"/>
      <path class="cls-2" d="M104.09,23.41v1.95c0,1.08-.86,1.95-1.91,1.95s-1.91-.88-1.91-1.95v-1.95h.68v1.95c0,.69.55,1.25,1.23,1.25s1.23-.56,1.23-1.25v-1.95h.68Z"/>
      <path class="cls-2" d="M107.09,23.42c1.06,0,1.91.87,1.91,1.95,0,.48-.17.92-.45,1.26-.03.04-.07.08-.11.12-.34.36-.82.57-1.35.57h-1.91v-3.9h1.91ZM105.86,26.62h1.23c.68,0,1.23-.56,1.23-1.25s-.55-1.25-1.23-1.25h-1.23v2.51Z"/>
      <path class="cls-2" d="M110.1,27.32v-3.9h.68v3.9h-.68Z"/>
      <path class="cls-2" d="M115.57,25.36c0,1.08-.86,1.95-1.91,1.95s-1.91-.88-1.91-1.95.86-1.95,1.91-1.95,1.91.88,1.91,1.95ZM114.89,25.36c0-.69-.55-1.25-1.23-1.25s-1.23.56-1.23,1.25.55,1.25,1.23,1.25,1.23-.56,1.23-1.25Z"/>
      <path class="cls-2" d="M119.46,24.49v-.02c0-.19-.16-.36-.35-.36h-1.55c-.19,0-.35.16-.35.36v.02c0,.19.16.36.35.36h1.38c.36,0,.67.16.89.4.02.02.03.03.04.05.17.21.27.48.27.78,0,.68-.54,1.23-1.21,1.23h-1.2c-.67,0-1.21-.55-1.21-1.23h.68c0,.3.24.54.53.54h1.2c.29,0,.53-.24.53-.54s-.24-.54-.53-.54h-1.38c-.28,0-.53-.11-.72-.3-.05-.05-.09-.11-.13-.17-.11-.17-.18-.37-.18-.6v-.02c0-.58.46-1.05,1.03-1.05h1.55c.57,0,1.03.47,1.03,1.05v.02h-.68Z"/>
    </g>
    <polygon class="cls-2" points="42.7 11.96 40.03 11.98 40.03 8.78 42.7 8.78 42.7 11.96"/>
  </g>
  <g>
    <path class="cls-2" d="M17.35,13.35c-.53.56-1.29.91-2.12.91-1.62,0-2.93-1.31-2.93-2.93,0-.45.1-.87.28-1.25-.34-.05-.7-.08-1.06-.08-3.73,0-6.75,3.02-6.75,6.75s3.02,6.75,6.75,6.75,6.75-3.02,6.75-6.75c0-1.24-.33-2.4-.92-3.4Z"/>
    <path class="cls-1" d="M29.68,13.78c0,5.61-3.07,10.5-7.63,13.08-2.18,1.24-4.72,1.95-7.41,1.95-4.18,0-7.09-.83-9.81-3.58l.07-.07c1.92,1.96,3.73,2.31,6.69,2.31,5.85,0,10.59-4.74,10.59-10.59,0-2.37-.78-4.56-2.1-6.33t0,0c-.33-.44-.69-.85-1.08-1.23l6.22-6.22c2.76,2.72,4.47,6.51,4.47,10.69Z"/>
  </g>
</svg>