<?xml version="1.0" encoding="UTF-8"?>
<svg id="Layer_1" xmlns="http://www.w3.org/2000/svg" version="1.1" viewBox="0 0 228.6 34.6">
  <!-- Generator: Adobe Illustrator 29.3.1, SVG Export Plug-In . SVG Version: 2.1.0 Build 151)  -->
  <defs>
    <style>
      .st0 {
        fill: #a5a5a5;
      }

      .st1 {
        fill: #242a36;
      }

      .st2 {
        fill: #f21260;
      }
    </style>
  </defs>
  <g>
    <path class="st1" d="M34.9,28.7c-.4.2-.8.3-1,.4-1.5.6-3,.9-4.6.9s-4.1-.5-6-1.5c-1.9-1-3.4-2.4-4.5-4.1-1.1-1.7-1.7-3.7-1.7-5.9s.3-3.1,1-4.5c.7-1.4,1.5-2.6,2.7-3.6,1.1-1,2.4-1.8,3.9-2.4,1.5-.6,3-.9,4.6-.9s3.1.3,4.6.8c1.5.6,2.8,1.3,3.9,2.4,1.2,1.1,2.1,2.3,2.7,3.6.7,1.4,1,2.9,1,4.5v11.1h-6.6v-1ZM24.6,15.9c-.5.8-.8,1.7-.8,2.7,0,1.5.6,2.7,1.7,3.8,1.1,1.1,2.4,1.6,3.9,1.6s2.8-.5,3.9-1.6c1.1-1.1,1.7-2.3,1.7-3.8s-.3-1.9-.8-2.7c-.5-.8-1.2-1.5-2.1-2-.8-.5-1.8-.7-2.7-.7s-1.9.2-2.7.7c-.9.5-1.5,1.1-2.1,2Z"/>
    <path class="st1" d="M110.7,16.5v13.4h-6.7v-13.4c-.1-2-1-3-2.5-3h-.4c-1.7,0-2.5,1.2-2.5,3.5v12.9h-6.7v-12.9c0-6,3.1-9.2,9.2-9.6h.4c2.4.1,4.4.7,5.9,1.7,1.5-1,3.4-1.6,5.9-1.7h.4c6.1.3,9.2,3.5,9.2,9.6v12.9h-6.7v-12.9c0-2.3-.8-3.5-2.5-3.5h-.4c-1.6,0-2.4,1.1-2.5,3Z"/>
    <path class="st1" d="M54.6,23.9h9.1v6.1h-20.3l9.5-16.5h-7.8v-5.6s18.7,0,18.7,0l-9.1,16.1Z"/>
    <g>
      <path class="st1" d="M15.7,23.7v6.3c-7.4,0-14.8-6-14.8-13.4V.4h6.3v16.1c0,3.9,4.5,7.1,8.5,7.1Z"/>
      <polygon class="st2" points="13.2 13.5 7.2 13.5 7.2 7.9 13.2 7.9 13.2 13.5"/>
    </g>
    <path class="st1" d="M88.7,14c-.6-1.4-1.5-2.6-2.7-3.6-1.1-1-2.4-1.8-3.9-2.4-1.5-.6-3-.8-4.6-.8s-3.1.3-4.6.9c-1.5.5-2.8,1.3-3.9,2.4-1.1,1-2,2.2-2.7,3.6-.7,1.4-1,2.9-1,4.5s.6,4.1,1.7,5.9c1.1,1.7,2.6,3.1,4.5,4.1,1.9,1,3.9,1.5,6,1.5s3.2-.3,4.6-.9c.2,0,.5-.2,1-.4v1h6.6v-11.2c0-1.6-.3-3.1-1-4.5ZM81.8,21.8c-1.8,2.5-5.2,3-7.7,1.2-2.5-1.8-3-5.2-1.2-7.7,1.8-2.5,5.2-3,7.7-1.2.2.2.5.4.7.6-.3.2-.6.4-.8.7-.8,1.1-.5,2.6.5,3.3.6.4,1.2.5,1.8.4,0,.9-.4,1.9-1,2.7Z"/>
    <path class="st1" d="M148,14c-.6-1.4-1.5-2.6-2.7-3.6-1.1-1-2.4-1.8-3.9-2.4-1.5-.6-3-.8-4.6-.8s-3.1.3-4.6.9c-1.5.5-2.8,1.3-3.9,2.4-1.1,1-2,2.2-2.7,3.6-.7,1.4-1,2.9-1,4.5s.6,4.1,1.7,5.9c1.1,1.7,2.6,3.1,4.5,4.1,1.9,1,3.9,1.5,6,1.5s3.2-.3,4.6-.9c.2,0,.5-.2,1-.4v1h6.6v-11.2c0-1.6-.3-3.1-1-4.5ZM141.2,21.8c-1.8,2.5-5.2,3-7.7,1.2-2.5-1.8-3-5.2-1.2-7.7,1.8-2.5,5.2-3,7.7-1.2.2.2.5.4.7.6-.3.2-.6.4-.8.7-.8,1.1-.5,2.6.5,3.3.6.4,1.2.5,1.8.4,0,.9-.4,1.9-1,2.7Z"/>
  </g>
  <g>
    <path class="st2" d="M168.7,7.9c2.8,0,5.1,2.3,5.1,5.1s-.5,2.4-1.2,3.3c0,.1-.2.2-.3.3-.9.9-2.2,1.5-3.6,1.5h-5.1V7.9h5.1ZM165.4,16.3h3.3c1.8,0,3.3-1.5,3.3-3.3s-1.5-3.3-3.3-3.3h-3.3v6.6Z"/>
    <path class="st2" d="M176,18.1V7.9h1.8v10.2h-1.8Z"/>
    <path class="st2" d="M181.9,13c0,1.8,1.5,3.3,3.3,3.3h3.3v-2h-3.3v-1.8h5.1v5.6h-5.1c-2.8,0-5.1-2.3-5.1-5.1s2.3-5.1,5.1-5.1h5.1v1.8h-5.1c-1.8,0-3.3,1.5-3.3,3.3Z"/>
    <path class="st2" d="M192.5,18.1V7.9h1.8v10.2h-1.8Z"/>
    <path class="st2" d="M206.7,7.9v1.8h-4.2v8.4h-1.8v-8.4h-4.2v-1.8h10.2Z"/>
    <path class="st2" d="M215.9,18.1h-2l-.9-1.8-2.2-4.4-2.2,4.4-.9,1.8h-2l.9-1.8,4.3-8.4,4.3,8.4.9,1.8Z"/>
    <path class="st2" d="M225.6,16.3v1.8h-5.2c-.5,0-1-.1-1.4-.3-.6-.3-1.2-.8-1.5-1.5-.2-.4-.3-.9-.3-1.4v-7h1.8v7.2c0,.6.6,1.2,1.2,1.2h5.4Z"/>
  </g>
  <g>
    <path class="st2" d="M170.2,23.6h0c0-.5-.4-.8-.8-.8h-3.5c-.4,0-.8.4-.8.8h0c0,.5.4.8.8.8h3.1c.8,0,1.5.3,2,.9,0,0,0,0,0,.1.4.5.6,1.1.6,1.7,0,1.5-1.2,2.7-2.7,2.7h-2.7c-1.5,0-2.7-1.2-2.7-2.7h1.5c0,.6.5,1.2,1.2,1.2h2.7c.6,0,1.2-.5,1.2-1.2s-.5-1.2-1.2-1.2h-3.1c-.6,0-1.2-.2-1.6-.6-.1-.1-.2-.2-.3-.4-.3-.4-.4-.8-.4-1.3h0c0-1.3,1-2.4,2.3-2.4h3.5c1.3,0,2.3,1,2.3,2.3h0s-1.5,0-1.5,0Z"/>
    <path class="st2" d="M181.7,21.2v1.5h-3.5v7h-1.5v-7h-3.5v-1.5h8.6Z"/>
    <path class="st2" d="M192.1,21.2v4.3c0,2.4-1.9,4.3-4.3,4.3s-4.3-1.9-4.3-4.3v-4.3h1.5v4.3c0,1.5,1.2,2.8,2.8,2.8s2.8-1.2,2.8-2.8v-4.3h1.5Z"/>
    <path class="st2" d="M198.2,21.2c2.4,0,4.3,1.9,4.3,4.3s-.4,2-1,2.8c0,0-.2.2-.2.3-.8.8-1.8,1.3-3,1.3h-4.3v-8.6h4.3,0ZM201,25.5c0-1.5-1.2-2.8-2.8-2.8h-2.8v5.5h2.8c1.5,0,2.8-1.2,2.8-2.8Z"/>
    <path class="st2" d="M204.4,29.8v-8.6h1.5v8.6h-1.5Z"/>
    <path class="st2" d="M216,25.5c0,2.4-1.9,4.3-4.3,4.3s-4.3-1.9-4.3-4.3,1.9-4.3,4.3-4.3,4.3,1.9,4.3,4.3ZM214.5,25.5c0-1.5-1.2-2.8-2.8-2.8s-2.8,1.2-2.8,2.8,1.2,2.8,2.8,2.8,2.8-1.2,2.8-2.8Z"/>
    <path class="st2" d="M224.1,23.6h0c0-.5-.4-.8-.8-.8h-3.5c-.4,0-.8.4-.8.8h0c0,.5.4.8.8.8h3.1c.8,0,1.5.3,2,.9,0,0,0,0,0,.1.4.5.6,1.1.6,1.7,0,1.5-1.2,2.7-2.7,2.7h-2.7c-1.5,0-2.7-1.2-2.7-2.7h1.5c0,.6.5,1.2,1.2,1.2h2.7c.6,0,1.2-.5,1.2-1.2s-.5-1.2-1.2-1.2h-3.1c-.6,0-1.2-.2-1.6-.6-.1-.1-.2-.2-.3-.4-.3-.4-.4-.8-.4-1.3h0c0-1.3,1-2.4,2.3-2.4h3.5c1.3,0,2.3,1,2.3,2.3h0s-1.5,0-1.5,0Z"/>
  </g>
  <rect class="st0" x="155.8" y="7.8" width="1.3" height="22.1"/>
</svg>