<?xml version="1.0" encoding="UTF-8"?>
<svg id="Layer_1" data-name="Layer 1" xmlns="http://www.w3.org/2000/svg" viewBox="0 0 100 100">
  <defs>
    <style>
      .cls-1 {
        fill: #242a36;
      }

      .cls-2 {
        fill: #f21260;
      }
    </style>
  </defs>
  <path class="cls-2" d="M50.47,40.37c-1.97,2.06-4.74,3.35-7.82,3.35-5.97,0-10.81-4.84-10.81-10.81,0-1.64.37-3.2,1.02-4.59-1.27-.2-2.58-.31-3.9-.31-13.75,0-24.9,11.15-24.9,24.9s11.15,24.9,24.9,24.9,24.9-11.15,24.9-24.9c0-4.57-1.23-8.86-3.39-12.54Z"/>
  <path class="cls-1" d="M95.94,41.99c0,20.7-11.33,38.73-28.14,48.26-8.05,4.57-17.4,7.19-27.33,7.19-15.42,0-26.15-3.06-36.21-13.22l.25-.25c7.09,7.24,13.75,8.52,24.68,8.52,21.59,0,39.06-17.5,39.06-39.06,0-8.74-2.87-16.81-7.75-23.34t0-.03c-1.22-1.63-2.54-3.12-3.99-4.55L79.46,2.57c10.19,10.03,16.48,24,16.48,39.42Z"/>
</svg>