<?xml version="1.0" encoding="UTF-8"?><svg id="Layer_1" xmlns="http://www.w3.org/2000/svg" viewBox="0 0 100 20"><defs><style>.cls-1{fill:#242a36;}</style></defs><path class="cls-1" d="M23.23,18.94c-.29.13-.5.21-.63.26-.95.37-1.95.55-3,.55-1.38,0-2.68-.32-3.9-.96-1.22-.65-2.2-1.53-2.92-2.65-.73-1.13-1.09-2.4-1.09-3.79,0-1.05.21-2.03.63-2.94.42-.9,1-1.68,1.74-2.35.73-.67,1.57-1.17,2.54-1.53.96-.37,1.96-.55,3-.55s2.03.18,3,.54c.97.36,1.82.87,2.54,1.54.76.68,1.34,1.47,1.76,2.35.42.91.63,1.89.63,2.94v7.23h-4.29v-.64ZM16.49,10.61c-.33.53-.5,1.11-.5,1.74,0,.95.36,1.78,1.08,2.47.71.68,1.55,1.03,2.52,1.03s1.83-.34,2.54-1.03c.72-.69,1.08-1.52,1.08-2.47,0-.63-.17-1.21-.5-1.74-.33-.53-.78-.95-1.34-1.27-.55-.31-1.14-.46-1.78-.46s-1.21.15-1.77.46c-.56.32-1,.74-1.34,1.27Z"/><path class="cls-1" d="M73.48,10.85v8.7h-4.33v-8.7c-.07-1.27-.62-1.92-1.63-1.96h-.24c-1.1.04-1.65.8-1.65,2.28v8.38h-4.32v-8.38c0-3.91,1.99-5.98,5.97-6.2h.24c1.58.09,2.85.47,3.81,1.13.95-.67,2.21-1.04,3.79-1.13h.24c3.98.22,5.97,2.28,5.97,6.2v8.38h-4.32v-8.38c0-1.48-.55-2.25-1.65-2.28h-.24c-1.02.04-1.56.69-1.63,1.96Z"/><path class="cls-1" d="M59.78,9.47c-.41-.88-1-1.67-1.75-2.35-.72-.67-1.57-1.18-2.54-1.54-.97-.36-1.97-.54-3-.54s-2.03.18-3,.55c-.96.35-1.81.86-2.54,1.53-.74.67-1.32,1.45-1.74,2.35-.42.91-.64,1.89-.64,2.94,0,1.4.36,2.66,1.09,3.79.72,1.12,1.69,2,2.91,2.65,1.22.64,2.53.96,3.9.96,1.04,0,2.04-.18,3-.55.14-.05.35-.13.64-.26v.54h4.28v-7.13c.01-1.05-.2-2.03-.62-2.94ZM52.5,16.04c-1.99,0-3.61-1.62-3.61-3.61s1.62-3.61,3.61-3.61c.44,0,.86.08,1.24.22-.15.24-.25.53-.25.84,0,.87.7,1.57,1.57,1.57.31,0,.59-.09.83-.24.14.38.21.79.21,1.22,0,1.99-1.62,3.61-3.61,3.61Z"/><path class="cls-1" d="M97.3,9.47c-.41-.88-1-1.67-1.75-2.35-.72-.67-1.57-1.18-2.54-1.54-.97-.36-1.97-.54-3-.54s-2.03.18-3,.55c-.96.35-1.81.86-2.54,1.53-.74.67-1.32,1.45-1.74,2.35-.42.91-.64,1.89-.64,2.94,0,1.4.36,2.66,1.09,3.79.72,1.12,1.69,2,2.91,2.65,1.22.64,2.53.96,3.9.96,1.04,0,2.04-.18,3-.55.14-.05.35-.13.64-.26v.54h4.28v-7.13c.01-1.05-.2-2.03-.62-2.94ZM90.02,16.04c-1.99,0-3.61-1.62-3.61-3.61s1.62-3.61,3.61-3.61c.44,0,.86.08,1.24.22-.15.24-.25.53-.25.84,0,.87.7,1.57,1.57,1.57.31,0,.59-.09.83-.24.14.38.21.79.21,1.22,0,1.99-1.62,3.61-3.61,3.61Z"/><path class="cls-1" d="M10.85,15.39v4.13c-4.85,0-8.79-3.94-8.79-8.79V.19h4.13v4.7h3.52v4.15h-3.52v1.69c0,2.57,2.09,4.66,4.66,4.66Z"/><path class="cls-1" d="M43.68,16.65l-2.99,2.99c-1.1-1.14-2.65-1.85-4.36-1.85s-3.25.7-4.35,1.84l-2.42-2.42s0,0,0,0l-.63-.63,5.8-5.8c-2.25-.28-4.25-1.34-5.72-2.91l2.96-2.96c1.1,1.13,2.64,1.84,4.35,1.84,1.42,0,2.72-.49,3.75-1.3.21-.17.41-.35.6-.54l2.52,2.52.5.5-5.9,5.9c2.3.22,4.36,1.27,5.88,2.85Z"/></svg>