<?xml version="1.0" encoding="UTF-8"?>
<svg id="Layer_1" data-name="Layer 1" xmlns="http://www.w3.org/2000/svg" viewBox="0 0 1600 1600">
  <defs>
    <style>
      .cls-1 {
        fill: #ffc60b;
      }
    </style>
  </defs>
  <path class="cls-1" d="M1531.9,955.52c-2.32.06-4.63.09-6.96.09-37.18,0-74.33-7.08-109.24-21.21-34.91-14.13-67.57-35.29-95.97-63.67-28.74-28.73-49.9-61.83-63.99-97.32-14.07-35.47-21.01-73.35-21.01-111.27s7.23-72.78,21.47-107.08,35.46-66.51,63.53-94.57c31.25-31.23,67.7-53.7,106.64-67.73l44.58-16.06-27.89-38.29c-23.91-32.84-50.67-64.28-80.31-93.9-76.67-76.64-165.4-134.22-260.05-172.57-94.65-38.36-195.22-57.53-295.77-57.53s-201.12,19.17-295.78,57.53c-94.64,38.35-183.38,95.93-260.04,172.57-76.68,76.62-134.3,165.3-172.67,259.89-38.39,94.6-57.56,195.11-57.56,295.6s19.17,201,57.56,295.6c38.37,94.59,95.99,183.27,172.67,259.89,76.67,76.64,165.4,134.22,260.04,172.57,94.66,38.36,195.22,57.53,295.78,57.53s201.12-19.17,295.77-57.53c94.65-38.35,183.38-95.93,260.05-172.57,102.03-101.96,170.23-225.23,204.39-355.41l11.98-45.67-47.22,1.11ZM1312.45,1305.23c-69.87,69.82-150.44,122.08-236.48,156.96-86.03,34.87-177.53,52.32-269.04,52.31-91.52.01-183.02-17.44-269.05-52.31-86.04-34.88-166.61-87.14-236.48-156.96-69.87-69.83-122.16-150.36-157.05-236.34-34.89-85.99-52.35-177.43-52.35-268.89s17.46-182.91,52.35-268.89c34.89-85.98,87.18-166.51,157.05-236.34,69.87-69.82,150.44-122.08,236.48-156.96,86.03-34.87,177.53-52.32,269.05-52.31,91.51-.01,183.01,17.44,269.04,52.31,86.04,34.88,166.61,87.14,236.48,156.96,16.23,16.22,31.5,33.02,45.82,50.35-32,16.61-62.05,38.32-88.84,65.11-34.66,34.64-61.15,74.73-78.93,117.6-17.79,42.87-26.9,88.51-26.9,134.31.01,46.57,8.52,93.32,26.02,137.47,17.5,44.13,44.05,85.65,79.81,121.39,35.22,35.2,76.05,61.68,119.57,79.29,31.2,12.63,63.78,20.72,96.74,24.29-33.88,102.6-91.56,198.95-173.29,280.65Z"/>
</svg>